<svg id="Слой_1" data-name="Слой 1" xmlns="http://www.w3.org/2000/svg" viewBox="0 0 75.43 39.71"><defs><style>.cls-1{fill:#398d3d;}.cls-2{fill:#3e8d44;}.cls-3{fill:#3d8d42;}.cls-4{fill:#418f47;}.cls-5{fill:#47904d;}.cls-6{fill:#3f8c43;}.cls-7{fill:#3f8b43;}</style></defs><path class="cls-1" d="M344.39,361.71c-1.71,1.3-2.75,3.15-4.08,4.88-.41-2.16-.41-4.24.9-6.1a11.05,11.05,0,0,1,7.32-4.74,30,30,0,0,0,5.82-1.34c1.1-.44,1.65.08,1.24,1.16a23,23,0,0,0-1,5.87,8.1,8.1,0,0,1-7.06,7c-2.15.33-3.12,1.42-4,3.31-2.88,6.49-4.26,13.39-5.77,20.25-.25,1.15-.41,2-1.88,2s-1.69-1-1.91-2c-1.25-5.84-2.66-11.65-4.43-17.36a45.31,45.31,0,0,0-9.93-17.92,6.08,6.08,0,0,1-.51-.88,8.51,8.51,0,0,1,4.48,2.61,31.56,31.56,0,0,1,8.21,12.72c1.62,4.24,2.38,8.71,4,13,2.49-7.89,5-15.7,10.09-22.37.24-.22.45-.52.34-.79s-.44-.11-.65,0A6.19,6.19,0,0,0,344.39,361.71Z" transform="translate(-289.16 -354.25)"/><path class="cls-2" d="M298.76,381.46c0,2.43,0,4.86,0,7.29,0,.89.05,1.88-1.22,1.9s-1.37-1-1.37-2c0-4.93-.06-9.86,0-14.78,0-1.45-.44-1.86-1.81-1.76-2.62,0-2.62,0-3.93,0-.7,0-1.3-.27-1.3-1a1.19,1.19,0,0,1,1.26-1.32q7,0,14,0a1.19,1.19,0,0,1,1.33,1.26c0,.89-.72,1.09-1.45,1.1-1.44,0-2.87.05-4.31,0-1,0-1.3.31-1.28,1.28C298.8,376.1,298.76,378.78,298.76,381.46Z" transform="translate(-289.16 -354.25)"/><path class="cls-3" d="M308.53,377.72a5.07,5.07,0,0,1,5-2.16c.73.09,1.36.35,1.28,1.25s-.55,1.12-1.38,1.17c-3.59.18-4.92,1.6-5,5.2,0,1.93,0,3.86,0,5.79,0,.87-.12,1.68-1.24,1.68S306,389.8,306,389c0-3.73,0-7.46,0-11.18,0-.79-.32-1.93,1-2.06S308.39,376.65,308.53,377.72Z" transform="translate(-289.16 -354.25)"/><path class="cls-4" d="M345.59,378.44c0-.84,0-1.7,1.18-1.72s1.35.84,1.35,1.78v11.56c0,.92-.28,1.64-1.33,1.64s-1.22-.83-1.22-1.7c0-1.93,0-3.85,0-5.78" transform="translate(-289.16 -354.25)"/><path class="cls-5" d="M345.12,372.35a1.52,1.52,0,0,1,1.77-1.63,1.72,1.72,0,1,1-.16,3.44A1.54,1.54,0,0,1,345.12,372.35Z" transform="translate(-289.16 -354.25)"/><path class="cls-6" d="M328.7,388.56c0-2.56-.05-5.12-.06-7.67,0-2.91-.88-4.51-2.84-5.14-3-1-6.4-.1-7.82,2-.45.66-1,1.39,0,2.07s1.47.19,2-.57a4,4,0,0,1,4.74-1.5c1.39.42,1.59,1.53,1.53,2.65s-1.06.74-1.78.78a12.53,12.53,0,0,0-5.42,1.23,4.69,4.69,0,0,0-2.35,5.23,4.06,4.06,0,0,0,3.84,3.26,7.52,7.52,0,0,0,5.7-1.86c.22,1.07.63,1.93,1.82,1.58S328.7,389.29,328.7,388.56Zm-2.37-3.8a4.53,4.53,0,0,1-5.4,4,2.15,2.15,0,0,1-1.85-2,2.51,2.51,0,0,1,1.53-2.72,11.76,11.76,0,0,1,4.27-.95C326.18,383,326.46,383.47,326.33,384.76Z" transform="translate(-289.16 -354.25)"/><path class="cls-7" d="M357.7,376.46c-4.23.05-6.81,3.1-6.74,8,.08,4.65,2.86,7.69,7,7.6s6.66-3.25,6.67-7.93S361.88,376.42,357.7,376.46Zm-.47,13.42a5,5,0,0,1-.56-.07c-2.15-.5-3.42-2.94-3.25-6.26.15-2.86,1.6-4.74,3.85-5,3-.34,4.86,1.89,4.82,5.66S360.25,390.15,357.23,389.88Z" transform="translate(-289.16 -354.25)"/></svg>